<?xml version="1.0" encoding="UTF-8"?>
<svg id="Capa_3" data-name="Capa 3" xmlns="http://www.w3.org/2000/svg" viewBox="0 0 565.57 308.44">
  <defs>
    <style>
      .cls-1 {
        fill: #fff;
      }

      .cls-2 {
        opacity: 0;
      }
    </style>
  </defs>
  <g id="Capa_1" data-name="Capa 1">
    <g>
      <g class="cls-2">
        <rect class="cls-1" width="565.57" height="308.44"/>
      </g>
      <g>
        <path d="M244.73,180.82c0,.05.04.1.1.1.02,0,.05,0,.06-.02,6.92-6.06,13.63-11.96,20.13-17.69,0,0,.05-.05.14-.15.07-.07.15-.11.24-.12.05,0,.09.03.09.08,0,0,0,0,0,0v37.92c0,.07-.06.13-.13.13h-41.06c-.09,0-.15-.07-.15-.15h0v-97.86c0-.06.05-.12.12-.12.03,0,.05,0,.07.03l20.18,16.59c.15.12.23.3.23.49v13.7c0,.06.05.1.1.1.03,0,.05-.01.07-.03l18.66-18.17c.06-.05.06-.14,0-.2,0,0,0,0-.01-.01l-39.15-32.56c-.17-.14-.27-.35-.27-.57v-28.6c0-.07.06-.13.13-.13h113.8c.07,0,.13.06.13.13v70.9c0,.1-.04.19-.12.25l-27.97,24.31c-.1.09-.26.09-.36,0l-14.77-13.63s-.04-.09,0-.12c0,0,0,0,0,0l22.63-19.67c.12-.1.19-.25.19-.41v-41.69c0-.07-.06-.13-.13-.13h-72.75s-.09.04-.09.09c0,.03.01.06.04.07l20.82,17.12c.09.08.15.19.15.31l-.21,21.13c0,.05.04.09.09.09.02,0,.05,0,.07-.03l21.81-21.23c.06-.06.15-.1.24-.1h13.3c.07,0,.13.06.13.13v14.63c0,.16-.07.31-.19.41l-56.19,49.72c-.11.1-.17.24-.17.38v24.58Z"/>
        <path d="M266.57,155.01l14.31-12.66c.08-.07.2-.07.28,0l62.77,58.36c.08.08.09.21,0,.29-.04.04-.09.06-.15.06h-27.56c-.05,0-.1-.02-.14-.06l-49.53-45.69c-.08-.08-.09-.21-.01-.29,0,0,.01-.01.02-.02Z"/>
        <path d="M239.85,224.03c2.63,0,5,.48,7.11,1.45,5.13,2.34,8.36,7.07,8.36,12.72,0,5.65-3.24,10.37-8.36,12.72-2.11.97-4.48,1.45-7.11,1.45s-5-.48-7.11-1.45c-5.13-2.34-8.36-7.07-8.36-12.72,0-5.65,3.24-10.38,8.36-12.72,2.11-.97,4.48-1.45,7.11-1.45ZM231.53,235.55c-1.41,4.54,1.17,9.39,5.77,10.82,4.6,1.43,9.48-1.09,10.89-5.63s-1.17-9.39-5.77-10.82h0c-4.6-1.43-9.48,1.09-10.89,5.63Z"/>
        <path d="M260.32,244.05c3.4,2.25,7.79,3.46,11.79,2.69,1.47-.28,3.03-1.32,2.6-3.01-.31-1.22-2.15-2-3.28-2.27-3.12-.73-4.99-1.18-5.6-1.34-3.5-.92-7.03-2.71-7.35-6.71-.37-4.65,2.77-7.77,7.09-8.78,4.84-1.13,10.16-.61,14.57,1.82.09.05.13.16.08.25l-2.11,4.73c-.03.07-.11.1-.17.07,0,0,0,0-.01,0-3.16-1.96-6.55-2.58-10.16-1.86-2.55.51-3.67,3.34-.95,4.69.82.41,1.79.72,2.91.95,2.79.55,4.9,1.07,6.35,1.56,2.9.97,5.27,2.98,5.51,6.17.46,6.06-4.79,8.92-10.12,9.3-4.03.29-7.83-.38-11.41-2.01-.79-.36-1.49-.77-2.09-1.22-.11-.08-.15-.24-.09-.36l2.31-4.62s.08-.07.13-.04c0,0,0,0,.01,0Z"/>
        <path d="M338.34,238.3c-.04-5.64,3.16-10.38,8.26-12.76,2.1-.98,4.46-1.47,7.08-1.49,2.62-.02,4.99.45,7.1,1.4,5.13,2.31,8.4,7,8.44,12.64.04,5.64-3.16,10.38-8.26,12.76-2.1.98-4.46,1.47-7.08,1.49-2.62.02-4.99-.45-7.11-1.4-5.13-2.31-8.4-7-8.44-12.64ZM362.43,238.15c0-4.77-3.87-8.64-8.64-8.64h0c-4.77,0-8.64,3.87-8.64,8.64h0c0,4.77,3.87,8.64,8.64,8.64s8.64-3.87,8.64-8.64Z"/>
        <path d="M317.58,243.87c-.1,0-.18.08-.18.18v7.67c0,.08-.07.14-.14.14h-6.41c-.07,0-.13-.06-.13-.14l.02-27.1c0-.06.05-.12.12-.12,2.95-.01,7.24,0,12.87.02,2.24,0,5.32.56,7.16,1.85,2.27,1.59,3.84,3.7,4.14,6.53.48,4.51-1.3,7.74-5.36,9.69-.1.05-.14.16-.09.26,0,.01.01.02.02.03l6.17,8.87s.02.09-.02.12c-.01,0-.03.01-.05.01h-7.12c-.08,0-.16-.05-.21-.12l-5.42-7.8c-.04-.05-.1-.08-.16-.08h-5.21ZM317.42,229.83l-.03,8.69s.04.08.08.08h0l5.96.02c2.71.01,4.91-1.84,4.92-4.12h0v-.57c0-2.29-2.18-4.15-4.88-4.16l-5.96-.02s-.08.04-.08.08h0Z"/>
        <path d="M203.31,244.05v7.67c0,.08-.06.14-.14.14h-6.41c-.07,0-.13-.06-.13-.14v-27.12c0-.06.05-.12.12-.12,2.95-.02,7.25-.01,12.88,0,2.24,0,5.33.56,7.17,1.85,2.28,1.59,3.85,3.7,4.15,6.53.49,4.52-1.3,7.75-5.36,9.7-.1.05-.14.16-.09.26,0,.01.01.02.02.03l6.18,8.88s.02.09-.02.12c-.01,0-.03.01-.05.01h-7.12c-.08,0-.16-.04-.21-.11l-5.43-7.8c-.04-.05-.1-.08-.16-.08h-5.22c-.1,0-.18.08-.18.18h0ZM203.3,229.9l.02,8.62c0,.07.05.12.12.12h6.02c2.7-.02,4.89-1.89,4.88-4.21,0,0,0,0,0,0v-.48c0-2.31-2.2-4.18-4.9-4.18h-6.02c-.07.01-.12.06-.12.13h0Z"/>
        <path d="M295.06,224.52c2.27,0,6.31,0,12.12,0,.08,0,.14.06.14.14,0,0,0,0,0,0v4.93c0,.08-.06.15-.14.15h-8.62c-.08,0-.15.07-.15.15v21.87s-.03.08-.08.09c-.11.01-1.21.02-3.3.02-2.09,0-3.19,0-3.29-.02-.05,0-.08-.04-.08-.09l.03-21.87c0-.08-.06-.15-.14-.15h-8.62c-.08-.01-.14-.08-.14-.16h0v-4.93c0-.08.07-.15.15-.15,0,0,0,0,0,0,5.81,0,9.85.01,12.12.02Z"/>
      </g>
    </g>
  </g>
</svg>